<?xml version="1.0" encoding="utf-8"?>
<!-- Generator: Adobe Illustrator 23.0.3, SVG Export Plug-In . SVG Version: 6.00 Build 0)  -->
<svg version="1.1" id="Layer_1" xmlns="http://www.w3.org/2000/svg" xmlns:xlink="http://www.w3.org/1999/xlink" x="0px" y="0px"
	 viewBox="0 0 387.1 108.01" style="enable-background:new 0 0 387.1 108.01;" xml:space="preserve">
<style type="text/css">
	.st0{fill:#FFFFFF;}
</style>
<g>
	<circle class="st0" cx="54.01" cy="54.01" r="51.34"/>
	<g>
		<path d="M54.01,0C24.18,0,0,24.18,0,54.01c0,29.83,24.18,54.01,54.01,54.01s54.01-24.18,54.01-54.01C108.01,24.18,83.83,0,54.01,0
			z M54.01,101.38c-26.16,0-47.37-21.21-47.37-47.37S27.84,6.63,54.01,6.63s47.37,21.21,47.37,47.37S80.17,101.38,54.01,101.38z"/>
		<path d="M14.01,73.2"/>
		<g>
			<path d="M83.16,21.71l-3.78,8.49l-23.2-0.09L29.74,90.13c5.76,3.88,12.5,6.41,19.77,7.16l5.25-11.93H70l-0.01,9.11
				c16.12-6.37,27.53-22.08,27.53-40.47C97.52,41.19,91.98,29.67,83.16,21.71z M70.02,73.75H59.89l10.17-23.09L70.02,73.75z"/>
			<path d="M33.63,30.03l-15.89-0.06c-4.57,6.89-7.25,15.15-7.25,24.04c0,6.75,1.54,13.13,4.28,18.83L33.63,30.03z"/>
		</g>
	</g>
	<g>
		<path class="st0" d="M132.76,18.76c-0.31-0.4-0.74-0.69-1.27-0.88c-0.54-0.19-1.04-0.29-1.52-0.29c-0.28,0-0.57,0.03-0.86,0.1
			c-0.3,0.07-0.58,0.17-0.84,0.31c-0.26,0.14-0.48,0.33-0.64,0.56c-0.17,0.23-0.25,0.51-0.25,0.84c0,0.53,0.2,0.93,0.59,1.21
			c0.4,0.28,0.89,0.52,1.5,0.72c0.6,0.2,1.25,0.4,1.94,0.59c0.69,0.2,1.34,0.48,1.94,0.84c0.6,0.36,1.1,0.85,1.5,1.46
			c0.4,0.61,0.59,1.43,0.59,2.45c0,0.97-0.18,1.82-0.54,2.55c-0.36,0.73-0.85,1.33-1.47,1.81c-0.62,0.48-1.34,0.83-2.15,1.06
			c-0.82,0.23-1.68,0.35-2.59,0.35c-1.14,0-2.19-0.17-3.17-0.52c-0.97-0.35-1.88-0.91-2.72-1.68l2.75-3.02
			c0.4,0.53,0.89,0.94,1.5,1.23s1.23,0.43,1.87,0.43c0.31,0,0.63-0.04,0.95-0.11c0.32-0.08,0.61-0.19,0.87-0.33
			c0.26-0.15,0.46-0.34,0.62-0.57s0.23-0.5,0.23-0.82c0-0.53-0.2-0.94-0.61-1.25c-0.4-0.31-0.91-0.57-1.52-0.78
			c-0.61-0.21-1.27-0.43-1.98-0.64c-0.71-0.21-1.37-0.5-1.98-0.87c-0.61-0.36-1.12-0.84-1.52-1.44c-0.4-0.59-0.61-1.38-0.61-2.35
			c0-0.94,0.18-1.77,0.56-2.47c0.37-0.71,0.87-1.3,1.48-1.78c0.62-0.48,1.33-0.84,2.14-1.08c0.81-0.24,1.64-0.36,2.5-0.36
			c0.99,0,1.95,0.14,2.87,0.42c0.92,0.28,1.76,0.75,2.5,1.41L132.76,18.76z"/>
		<path class="st0" d="M145.11,30.49h-0.05c-0.41,0.64-0.96,1.11-1.65,1.39c-0.69,0.28-1.41,0.42-2.16,0.42
			c-0.56,0-1.1-0.08-1.62-0.24c-0.52-0.16-0.98-0.39-1.37-0.7c-0.4-0.31-0.71-0.7-0.94-1.16c-0.23-0.46-0.35-1-0.35-1.61
			c0-0.69,0.13-1.28,0.38-1.76c0.26-0.48,0.6-0.88,1.04-1.19c0.44-0.31,0.94-0.56,1.5-0.73c0.56-0.17,1.14-0.3,1.75-0.38
			c0.6-0.08,1.2-0.13,1.8-0.15c0.6-0.02,1.16-0.02,1.67-0.02c0-0.66-0.24-1.18-0.71-1.57c-0.47-0.39-1.03-0.58-1.67-0.58
			c-0.61,0-1.17,0.13-1.67,0.38c-0.5,0.26-0.95,0.61-1.35,1.05l-1.98-2.03c0.69-0.64,1.5-1.13,2.42-1.45
			c0.92-0.32,1.88-0.48,2.87-0.48c1.09,0,1.98,0.14,2.68,0.41c0.7,0.27,1.26,0.67,1.68,1.2c0.42,0.53,0.71,1.17,0.88,1.94
			c0.16,0.77,0.25,1.65,0.25,2.66V32h-3.41V30.49z M144.2,26.73c-0.28,0-0.63,0.01-1.05,0.04c-0.42,0.02-0.83,0.1-1.21,0.21
			c-0.39,0.12-0.72,0.29-0.99,0.52c-0.27,0.23-0.41,0.55-0.41,0.96c0,0.45,0.19,0.77,0.57,0.99c0.38,0.21,0.77,0.32,1.19,0.32
			c0.36,0,0.71-0.05,1.05-0.15c0.34-0.1,0.64-0.24,0.9-0.42c0.26-0.18,0.47-0.41,0.63-0.69s0.24-0.61,0.24-0.99v-0.79H144.2z"/>
		<path class="st0" d="M150.94,19.98h3.56v1.63h0.05c0.11-0.23,0.28-0.46,0.49-0.69c0.21-0.23,0.47-0.44,0.77-0.62
			c0.3-0.18,0.64-0.33,1.01-0.45c0.38-0.12,0.79-0.17,1.24-0.17c0.94,0,1.7,0.15,2.28,0.43c0.58,0.29,1.03,0.69,1.35,1.2
			c0.32,0.51,0.54,1.11,0.66,1.8c0.12,0.69,0.17,1.44,0.17,2.25V32h-3.71v-5.89c0-0.35-0.01-0.7-0.04-1.08
			c-0.02-0.37-0.1-0.71-0.22-1.03c-0.12-0.31-0.31-0.57-0.57-0.77c-0.26-0.2-0.62-0.3-1.1-0.3c-0.48,0-0.86,0.09-1.16,0.26
			c-0.3,0.17-0.52,0.41-0.68,0.69s-0.26,0.61-0.31,0.98s-0.07,0.74-0.07,1.14V32h-3.71V19.98z"/>
		<path class="st0" d="M173.09,14.48h11.75v3.56h-7.89v3.56h7.3v3.56h-7.3V32h-3.86V14.48z"/>
		<path class="st0" d="M186.63,19.98h3.71v1.93h0.05c0.4-0.74,0.87-1.3,1.41-1.67c0.54-0.37,1.23-0.56,2.05-0.56
			c0.21,0,0.43,0.01,0.64,0.03c0.21,0.02,0.41,0.05,0.59,0.1v3.39c-0.26-0.08-0.52-0.14-0.78-0.18c-0.26-0.04-0.52-0.06-0.8-0.06
			c-0.71,0-1.27,0.1-1.68,0.3c-0.41,0.2-0.73,0.47-0.95,0.83c-0.22,0.36-0.37,0.78-0.43,1.27c-0.07,0.49-0.1,1.04-0.1,1.63V32h-3.71
			V19.98z"/>
		<path class="st0" d="M204.2,30.49h-0.05c-0.41,0.64-0.96,1.11-1.65,1.39c-0.68,0.28-1.41,0.42-2.16,0.42
			c-0.56,0-1.1-0.08-1.62-0.24s-0.98-0.39-1.37-0.7c-0.4-0.31-0.71-0.7-0.94-1.16c-0.23-0.46-0.35-1-0.35-1.61
			c0-0.69,0.13-1.28,0.38-1.76c0.26-0.48,0.6-0.88,1.04-1.19c0.44-0.31,0.94-0.56,1.5-0.73c0.56-0.17,1.14-0.3,1.75-0.38
			c0.6-0.08,1.2-0.13,1.8-0.15c0.6-0.02,1.16-0.02,1.67-0.02c0-0.66-0.24-1.18-0.71-1.57c-0.47-0.39-1.03-0.58-1.67-0.58
			c-0.61,0-1.17,0.13-1.67,0.38c-0.5,0.26-0.95,0.61-1.35,1.05l-1.98-2.03c0.69-0.64,1.5-1.13,2.42-1.45
			c0.92-0.32,1.88-0.48,2.87-0.48c1.09,0,1.98,0.14,2.68,0.41c0.7,0.27,1.26,0.67,1.68,1.2s0.71,1.17,0.88,1.94
			c0.16,0.77,0.25,1.65,0.25,2.66V32h-3.41V30.49z M203.28,26.73c-0.28,0-0.63,0.01-1.05,0.04c-0.42,0.02-0.83,0.1-1.21,0.21
			c-0.39,0.12-0.72,0.29-0.99,0.52c-0.27,0.23-0.41,0.55-0.41,0.96c0,0.45,0.19,0.77,0.57,0.99c0.38,0.21,0.77,0.32,1.19,0.32
			c0.36,0,0.71-0.05,1.05-0.15c0.34-0.1,0.64-0.24,0.9-0.42c0.26-0.18,0.47-0.41,0.63-0.69s0.24-0.61,0.24-0.99v-0.79H203.28z"/>
		<path class="st0" d="M210.3,19.98h3.56v1.63h0.05c0.11-0.23,0.28-0.46,0.49-0.69c0.21-0.23,0.47-0.44,0.77-0.62
			c0.3-0.18,0.64-0.33,1.01-0.45c0.38-0.12,0.79-0.17,1.24-0.17c0.94,0,1.7,0.15,2.28,0.43c0.58,0.29,1.03,0.69,1.35,1.2
			c0.32,0.51,0.54,1.11,0.66,1.8c0.12,0.69,0.17,1.44,0.17,2.25V32h-3.71v-5.89c0-0.35-0.01-0.7-0.04-1.08
			c-0.02-0.37-0.1-0.71-0.22-1.03c-0.12-0.31-0.31-0.57-0.57-0.77c-0.26-0.2-0.62-0.3-1.1-0.3c-0.48,0-0.86,0.09-1.16,0.26
			c-0.3,0.17-0.52,0.41-0.68,0.69s-0.26,0.61-0.31,0.98s-0.07,0.74-0.07,1.14V32h-3.71V19.98z"/>
		<path class="st0" d="M232.39,23.86c-0.18-0.26-0.44-0.48-0.77-0.66c-0.33-0.17-0.68-0.26-1.06-0.26c-0.94,0-1.67,0.28-2.19,0.84
			c-0.52,0.56-0.78,1.29-0.78,2.2c0,0.91,0.26,1.64,0.78,2.2c0.52,0.56,1.25,0.84,2.19,0.84c0.41,0,0.77-0.09,1.06-0.27
			c0.3-0.18,0.55-0.4,0.77-0.64l2.45,2.57c-0.58,0.6-1.26,1.01-2.04,1.25c-0.78,0.24-1.53,0.36-2.24,0.36
			c-0.92,0-1.79-0.15-2.61-0.45c-0.82-0.3-1.52-0.72-2.13-1.27c-0.6-0.55-1.08-1.22-1.42-1.99c-0.35-0.77-0.52-1.64-0.52-2.6
			s0.17-1.82,0.52-2.6c0.35-0.77,0.82-1.44,1.42-1.99c0.6-0.55,1.31-0.98,2.13-1.27c0.82-0.3,1.69-0.45,2.61-0.45
			c0.71,0,1.46,0.12,2.24,0.36c0.78,0.24,1.46,0.66,2.04,1.25L232.39,23.86z"/>
		<path class="st0" d="M236.39,16.19c0-0.6,0.21-1.1,0.63-1.52c0.42-0.42,0.93-0.63,1.52-0.63c0.6,0,1.1,0.21,1.52,0.63
			c0.42,0.42,0.63,0.93,0.63,1.52c0,0.59-0.21,1.1-0.63,1.52c-0.42,0.42-0.93,0.63-1.52,0.63c-0.59,0-1.1-0.21-1.52-0.63
			C236.6,17.29,236.39,16.79,236.39,16.19z M236.69,19.98h3.71V32h-3.71V19.98z"/>
		<path class="st0" d="M250.06,23.51c-0.54-0.68-1.26-1.01-2.15-1.01c-0.31,0-0.62,0.07-0.92,0.22c-0.3,0.15-0.45,0.4-0.45,0.77
			c0,0.3,0.15,0.52,0.46,0.66c0.3,0.14,0.69,0.26,1.16,0.37c0.47,0.11,0.97,0.22,1.51,0.35c0.54,0.12,1.04,0.32,1.51,0.58
			s0.86,0.62,1.16,1.08c0.3,0.45,0.46,1.06,0.46,1.82c0,0.77-0.17,1.41-0.51,1.92c-0.34,0.5-0.77,0.91-1.3,1.21
			c-0.53,0.3-1.12,0.52-1.78,0.64c-0.66,0.12-1.31,0.19-1.95,0.19c-0.84,0-1.69-0.12-2.55-0.36c-0.86-0.24-1.58-0.66-2.18-1.27
			l2.25-2.5c0.35,0.43,0.73,0.76,1.15,0.98c0.42,0.22,0.91,0.33,1.47,0.33c0.43,0,0.82-0.06,1.16-0.18
			c0.35-0.13,0.52-0.35,0.52-0.68c0-0.31-0.15-0.55-0.46-0.7c-0.3-0.16-0.69-0.29-1.16-0.4c-0.47-0.11-0.97-0.22-1.51-0.35
			c-0.54-0.12-1.04-0.31-1.51-0.56c-0.47-0.25-0.86-0.6-1.16-1.05c-0.31-0.45-0.46-1.06-0.46-1.82c0-0.71,0.14-1.32,0.43-1.83
			c0.29-0.51,0.67-0.93,1.14-1.26c0.47-0.33,1.01-0.57,1.62-0.73c0.61-0.16,1.23-0.24,1.86-0.24c0.79,0,1.59,0.12,2.4,0.35
			c0.81,0.23,1.49,0.64,2.05,1.24L250.06,23.51z"/>
		<path class="st0" d="M262.86,23.86c-0.18-0.26-0.44-0.48-0.77-0.66c-0.33-0.17-0.68-0.26-1.06-0.26c-0.94,0-1.67,0.28-2.19,0.84
			c-0.52,0.56-0.78,1.29-0.78,2.2c0,0.91,0.26,1.64,0.78,2.2c0.52,0.56,1.25,0.84,2.19,0.84c0.41,0,0.77-0.09,1.06-0.27
			c0.3-0.18,0.55-0.4,0.77-0.64l2.45,2.57c-0.58,0.6-1.26,1.01-2.04,1.25c-0.78,0.24-1.53,0.36-2.24,0.36
			c-0.92,0-1.79-0.15-2.61-0.45c-0.82-0.3-1.52-0.72-2.13-1.27c-0.6-0.55-1.08-1.22-1.42-1.99c-0.35-0.77-0.52-1.64-0.52-2.6
			s0.17-1.82,0.52-2.6c0.35-0.77,0.82-1.44,1.42-1.99c0.6-0.55,1.31-0.98,2.13-1.27c0.82-0.3,1.69-0.45,2.61-0.45
			c0.71,0,1.46,0.12,2.24,0.36c0.78,0.24,1.46,0.66,2.04,1.25L262.86,23.86z"/>
		<path class="st0" d="M265.98,25.99c0-0.96,0.17-1.82,0.52-2.6c0.35-0.77,0.82-1.44,1.42-1.99c0.6-0.55,1.31-0.98,2.13-1.27
			c0.82-0.3,1.69-0.45,2.61-0.45c0.92,0,1.79,0.15,2.61,0.45c0.82,0.3,1.52,0.72,2.13,1.27c0.6,0.55,1.08,1.22,1.42,1.99
			c0.35,0.77,0.52,1.64,0.52,2.6s-0.17,1.82-0.52,2.6c-0.35,0.78-0.82,1.44-1.42,1.99s-1.31,0.98-2.13,1.27
			c-0.82,0.3-1.69,0.45-2.61,0.45c-0.92,0-1.79-0.15-2.61-0.45c-0.82-0.3-1.53-0.72-2.13-1.27c-0.6-0.55-1.08-1.22-1.42-1.99
			C266.15,27.81,265.98,26.94,265.98,25.99z M269.69,25.99c0,0.91,0.26,1.64,0.78,2.2c0.52,0.56,1.25,0.84,2.19,0.84
			c0.94,0,1.67-0.28,2.19-0.84c0.52-0.56,0.78-1.29,0.78-2.2c0-0.91-0.26-1.64-0.78-2.2c-0.52-0.56-1.25-0.84-2.19-0.84
			c-0.94,0-1.67,0.28-2.19,0.84C269.95,24.35,269.69,25.08,269.69,25.99z"/>
		<path class="st0" d="M141.91,55.68c0-0.96,0.17-1.82,0.52-2.6c0.35-0.77,0.82-1.44,1.42-1.99c0.6-0.55,1.31-0.98,2.13-1.27
			c0.82-0.3,1.69-0.45,2.61-0.45c0.92,0,1.79,0.15,2.61,0.45c0.82,0.3,1.52,0.72,2.13,1.27c0.6,0.55,1.08,1.22,1.42,1.99
			c0.35,0.77,0.52,1.64,0.52,2.6c0,0.96-0.17,1.82-0.52,2.6c-0.35,0.78-0.82,1.44-1.42,1.99c-0.6,0.55-1.31,0.98-2.13,1.27
			c-0.82,0.3-1.69,0.45-2.61,0.45c-0.92,0-1.79-0.15-2.61-0.45c-0.82-0.3-1.53-0.72-2.13-1.27c-0.6-0.55-1.08-1.22-1.42-1.99
			C142.08,57.5,141.91,56.63,141.91,55.68z M145.62,55.68c0,0.91,0.26,1.64,0.78,2.2c0.52,0.56,1.25,0.84,2.19,0.84
			c0.94,0,1.67-0.28,2.19-0.84c0.52-0.56,0.78-1.29,0.78-2.2c0-0.91-0.26-1.64-0.78-2.2c-0.52-0.56-1.25-0.84-2.19-0.84
			c-0.94,0-1.67,0.28-2.19,0.84C145.88,54.03,145.62,54.77,145.62,55.68z"/>
		<path class="st0" d="M168.79,61.69h-3.56v-1.63h-0.05c-0.13,0.23-0.3,0.46-0.51,0.69c-0.21,0.23-0.46,0.44-0.75,0.62
			c-0.3,0.18-0.64,0.33-1.01,0.45c-0.38,0.12-0.79,0.17-1.24,0.17c-0.94,0-1.7-0.15-2.29-0.43c-0.59-0.29-1.04-0.69-1.36-1.2
			c-0.32-0.51-0.54-1.11-0.64-1.8c-0.11-0.69-0.16-1.44-0.16-2.25v-6.63h3.71v5.89c0,0.35,0.01,0.7,0.04,1.08
			c0.02,0.37,0.1,0.71,0.22,1.03c0.12,0.31,0.31,0.57,0.57,0.77c0.26,0.2,0.62,0.3,1.1,0.3c0.48,0,0.87-0.09,1.16-0.26
			c0.3-0.17,0.52-0.41,0.68-0.69c0.15-0.29,0.26-0.61,0.31-0.98c0.05-0.36,0.07-0.74,0.07-1.14v-5.99h3.71V61.69z"/>
		<path class="st0" d="M171.65,49.66h3.56v1.63h0.05c0.11-0.23,0.28-0.46,0.49-0.69c0.21-0.23,0.47-0.44,0.77-0.62
			c0.3-0.18,0.64-0.33,1.01-0.45c0.38-0.12,0.79-0.17,1.24-0.17c0.94,0,1.7,0.15,2.28,0.43c0.58,0.29,1.03,0.69,1.35,1.2
			s0.54,1.11,0.66,1.8c0.12,0.69,0.17,1.44,0.17,2.25v6.63h-3.71V55.8c0-0.35-0.01-0.7-0.04-1.08c-0.02-0.37-0.1-0.71-0.22-1.03
			c-0.12-0.31-0.31-0.57-0.57-0.77c-0.26-0.2-0.62-0.3-1.1-0.3c-0.48,0-0.86,0.09-1.16,0.26c-0.3,0.17-0.52,0.41-0.68,0.69
			c-0.16,0.29-0.26,0.61-0.31,0.98c-0.05,0.36-0.07,0.74-0.07,1.14v5.99h-3.71V49.66z"/>
		<path class="st0" d="M194.09,52.63h-3.27v4.01c0,0.33,0.02,0.63,0.05,0.9c0.03,0.27,0.11,0.51,0.22,0.7
			c0.11,0.2,0.29,0.35,0.53,0.46s0.56,0.16,0.95,0.16c0.2,0,0.46-0.02,0.78-0.06c0.32-0.04,0.57-0.14,0.73-0.28v3.09
			c-0.41,0.15-0.84,0.25-1.29,0.3c-0.45,0.05-0.88,0.08-1.31,0.08c-0.63,0-1.2-0.07-1.73-0.2c-0.53-0.13-0.99-0.34-1.38-0.63
			c-0.4-0.29-0.71-0.66-0.93-1.13c-0.22-0.46-0.33-1.02-0.33-1.68v-5.71h-2.38v-2.97h2.38V46.1h3.71v3.56h3.27V52.63z"/>
		<path class="st0" d="M203.42,63.64c-0.25,0.64-0.49,1.21-0.72,1.71c-0.23,0.49-0.52,0.91-0.88,1.25c-0.35,0.34-0.8,0.59-1.35,0.77
			c-0.55,0.17-1.26,0.26-2.15,0.26c-0.96,0-1.88-0.15-2.77-0.45l0.49-3.04c0.56,0.25,1.14,0.37,1.73,0.37
			c0.41,0,0.75-0.05,1.01-0.14c0.26-0.09,0.48-0.22,0.66-0.39c0.17-0.17,0.32-0.38,0.43-0.63c0.12-0.25,0.24-0.54,0.37-0.86
			l0.27-0.69l-5.27-12.12h4.01l3.09,7.94h0.05l2.65-7.94h3.81L203.42,63.64z"/>
		<path class="st0" d="M221.7,47.59h-5v-3.41h13.86v3.41h-5v14.1h-3.86V47.59z"/>
		<path class="st0" d="M230.48,49.66h3.71v1.93h0.05c0.4-0.74,0.87-1.3,1.41-1.67c0.54-0.37,1.23-0.56,2.05-0.56
			c0.21,0,0.43,0.01,0.64,0.03c0.21,0.02,0.41,0.05,0.59,0.1v3.39c-0.26-0.08-0.52-0.14-0.78-0.18c-0.26-0.04-0.52-0.06-0.8-0.06
			c-0.71,0-1.27,0.1-1.68,0.3c-0.41,0.2-0.73,0.47-0.95,0.83c-0.22,0.36-0.37,0.78-0.43,1.27c-0.07,0.49-0.1,1.04-0.1,1.63v5.02
			h-3.71V49.66z"/>
		<path class="st0" d="M248.04,60.18h-0.05c-0.41,0.64-0.96,1.11-1.65,1.39c-0.68,0.28-1.41,0.42-2.16,0.42
			c-0.56,0-1.1-0.08-1.62-0.24c-0.52-0.16-0.98-0.39-1.37-0.7s-0.71-0.7-0.94-1.16c-0.23-0.46-0.35-1-0.35-1.61
			c0-0.69,0.13-1.28,0.38-1.76c0.26-0.48,0.6-0.88,1.04-1.19c0.44-0.31,0.94-0.56,1.5-0.73c0.56-0.17,1.14-0.3,1.75-0.38
			c0.6-0.08,1.2-0.13,1.8-0.15c0.6-0.02,1.16-0.02,1.67-0.02c0-0.66-0.24-1.18-0.71-1.57s-1.03-0.58-1.67-0.58
			c-0.61,0-1.17,0.13-1.67,0.38c-0.5,0.26-0.95,0.61-1.35,1.05l-1.98-2.03c0.69-0.64,1.5-1.13,2.42-1.45
			c0.92-0.32,1.88-0.48,2.87-0.48c1.09,0,1.98,0.14,2.68,0.41c0.7,0.27,1.26,0.67,1.68,1.2s0.71,1.17,0.88,1.94
			c0.16,0.77,0.25,1.65,0.25,2.66v6.11h-3.41V60.18z M247.13,56.42c-0.28,0-0.63,0.01-1.05,0.04s-0.83,0.1-1.21,0.21
			c-0.39,0.12-0.72,0.29-0.99,0.52c-0.27,0.23-0.41,0.55-0.41,0.96c0,0.45,0.19,0.77,0.57,0.99c0.38,0.21,0.77,0.32,1.19,0.32
			c0.36,0,0.71-0.05,1.05-0.15c0.34-0.1,0.64-0.24,0.9-0.42c0.26-0.18,0.47-0.41,0.63-0.69c0.16-0.28,0.24-0.61,0.24-0.99v-0.79
			H247.13z"/>
		<path class="st0" d="M254.14,49.66h3.56v1.63h0.05c0.11-0.23,0.28-0.46,0.49-0.69c0.21-0.23,0.47-0.44,0.77-0.62
			c0.3-0.18,0.64-0.33,1.01-0.45c0.38-0.12,0.79-0.17,1.24-0.17c0.94,0,1.7,0.15,2.28,0.43c0.58,0.29,1.03,0.69,1.35,1.2
			c0.32,0.51,0.54,1.11,0.66,1.8c0.12,0.69,0.17,1.44,0.17,2.25v6.63h-3.71V55.8c0-0.35-0.01-0.7-0.04-1.08s-0.1-0.71-0.22-1.03
			c-0.12-0.31-0.31-0.57-0.57-0.77c-0.26-0.2-0.62-0.3-1.1-0.3c-0.48,0-0.86,0.09-1.16,0.26c-0.3,0.17-0.52,0.41-0.68,0.69
			c-0.16,0.29-0.26,0.61-0.31,0.98c-0.05,0.36-0.07,0.74-0.07,1.14v5.99h-3.71V49.66z"/>
		<path class="st0" d="M275.25,53.2c-0.54-0.68-1.26-1.01-2.15-1.01c-0.31,0-0.62,0.07-0.92,0.22c-0.3,0.15-0.45,0.4-0.45,0.77
			c0,0.3,0.15,0.52,0.46,0.66c0.3,0.14,0.69,0.26,1.16,0.37c0.47,0.11,0.97,0.22,1.51,0.35c0.54,0.12,1.04,0.32,1.51,0.58
			s0.86,0.62,1.16,1.08c0.3,0.45,0.46,1.06,0.46,1.82c0,0.77-0.17,1.41-0.51,1.92c-0.34,0.5-0.77,0.91-1.3,1.21
			s-1.12,0.52-1.78,0.64c-0.66,0.12-1.31,0.19-1.95,0.19c-0.84,0-1.69-0.12-2.55-0.36c-0.86-0.24-1.58-0.66-2.18-1.27l2.25-2.5
			c0.35,0.43,0.73,0.76,1.15,0.98c0.42,0.22,0.91,0.33,1.47,0.33c0.43,0,0.82-0.06,1.16-0.18c0.35-0.13,0.52-0.35,0.52-0.68
			c0-0.31-0.15-0.55-0.46-0.7c-0.3-0.16-0.69-0.29-1.16-0.4c-0.47-0.11-0.97-0.22-1.51-0.35c-0.54-0.12-1.04-0.31-1.51-0.56
			c-0.47-0.25-0.86-0.6-1.16-1.05c-0.31-0.45-0.46-1.06-0.46-1.82c0-0.71,0.14-1.32,0.43-1.83c0.29-0.51,0.67-0.93,1.14-1.26
			c0.47-0.33,1.01-0.57,1.62-0.73c0.61-0.16,1.23-0.24,1.86-0.24c0.79,0,1.59,0.12,2.4,0.35c0.81,0.23,1.49,0.64,2.05,1.24
			L275.25,53.2z"/>
		<path class="st0" d="M280.05,49.66h3.41v1.58h0.05c0.15-0.21,0.34-0.43,0.58-0.66c0.24-0.22,0.52-0.42,0.84-0.61
			c0.32-0.18,0.67-0.33,1.05-0.45c0.38-0.12,0.78-0.17,1.21-0.17c0.89,0,1.7,0.15,2.42,0.46c0.73,0.31,1.35,0.73,1.87,1.29
			c0.52,0.55,0.92,1.21,1.2,1.97c0.28,0.76,0.42,1.59,0.42,2.5c0,0.84-0.13,1.64-0.38,2.41c-0.26,0.77-0.62,1.45-1.09,2.04
			c-0.47,0.59-1.04,1.07-1.72,1.42c-0.68,0.35-1.44,0.53-2.3,0.53c-0.77,0-1.5-0.12-2.16-0.36c-0.67-0.24-1.22-0.65-1.64-1.23h-0.05
			v6.93h-3.71V49.66z M283.47,55.68c0,0.91,0.26,1.64,0.78,2.2c0.52,0.56,1.25,0.84,2.19,0.84s1.67-0.28,2.19-0.84
			c0.52-0.56,0.78-1.29,0.78-2.2c0-0.91-0.26-1.64-0.78-2.2c-0.52-0.56-1.25-0.84-2.19-0.84s-1.67,0.28-2.19,0.84
			C283.73,54.03,283.47,54.77,283.47,55.68z"/>
		<path class="st0" d="M294.88,55.68c0-0.96,0.17-1.82,0.52-2.6c0.35-0.77,0.82-1.44,1.42-1.99c0.6-0.55,1.31-0.98,2.13-1.27
			c0.82-0.3,1.69-0.45,2.61-0.45c0.92,0,1.79,0.15,2.61,0.45c0.82,0.3,1.52,0.72,2.13,1.27c0.6,0.55,1.08,1.22,1.42,1.99
			c0.35,0.77,0.52,1.64,0.52,2.6c0,0.96-0.17,1.82-0.52,2.6c-0.35,0.78-0.82,1.44-1.42,1.99c-0.6,0.55-1.31,0.98-2.13,1.27
			c-0.82,0.3-1.69,0.45-2.61,0.45c-0.92,0-1.79-0.15-2.61-0.45c-0.82-0.3-1.53-0.72-2.13-1.27c-0.6-0.55-1.08-1.22-1.42-1.99
			C295.06,57.5,294.88,56.63,294.88,55.68z M298.59,55.68c0,0.91,0.26,1.64,0.78,2.2c0.52,0.56,1.25,0.84,2.19,0.84
			s1.67-0.28,2.19-0.84c0.52-0.56,0.78-1.29,0.78-2.2c0-0.91-0.26-1.64-0.78-2.2c-0.52-0.56-1.25-0.84-2.19-0.84
			s-1.67,0.28-2.19,0.84C298.86,54.03,298.59,54.77,298.59,55.68z"/>
		<path class="st0" d="M310,49.66h3.71v1.93h0.05c0.4-0.74,0.87-1.3,1.41-1.67c0.54-0.37,1.23-0.56,2.05-0.56
			c0.21,0,0.43,0.01,0.64,0.03c0.21,0.02,0.41,0.05,0.59,0.1v3.39c-0.26-0.08-0.52-0.14-0.78-0.18c-0.26-0.04-0.52-0.06-0.8-0.06
			c-0.71,0-1.27,0.1-1.68,0.3c-0.41,0.2-0.73,0.47-0.95,0.83c-0.22,0.36-0.37,0.78-0.43,1.27c-0.07,0.49-0.1,1.04-0.1,1.63v5.02H310
			V49.66z"/>
		<path class="st0" d="M328.88,52.63h-3.27v4.01c0,0.33,0.02,0.63,0.05,0.9c0.03,0.27,0.11,0.51,0.22,0.7
			c0.11,0.2,0.29,0.35,0.53,0.46c0.24,0.11,0.56,0.16,0.95,0.16c0.2,0,0.46-0.02,0.78-0.06c0.32-0.04,0.57-0.14,0.73-0.28v3.09
			c-0.41,0.15-0.84,0.25-1.29,0.3c-0.45,0.05-0.88,0.08-1.31,0.08c-0.63,0-1.2-0.07-1.73-0.2c-0.53-0.13-0.99-0.34-1.38-0.63
			c-0.4-0.29-0.71-0.66-0.93-1.13c-0.22-0.46-0.33-1.02-0.33-1.68v-5.71h-2.38v-2.97h2.38V46.1h3.71v3.56h3.27V52.63z"/>
		<path class="st0" d="M338.57,60.18h-0.05c-0.41,0.64-0.96,1.11-1.65,1.39c-0.69,0.28-1.41,0.42-2.16,0.42
			c-0.56,0-1.1-0.08-1.62-0.24s-0.98-0.39-1.37-0.7s-0.71-0.7-0.94-1.16c-0.23-0.46-0.35-1-0.35-1.61c0-0.69,0.13-1.28,0.38-1.76
			c0.26-0.48,0.6-0.88,1.04-1.19c0.44-0.31,0.94-0.56,1.5-0.73c0.56-0.17,1.14-0.3,1.75-0.38c0.6-0.08,1.2-0.13,1.8-0.15
			c0.6-0.02,1.16-0.02,1.67-0.02c0-0.66-0.24-1.18-0.71-1.57c-0.47-0.39-1.03-0.58-1.67-0.58c-0.61,0-1.17,0.13-1.67,0.38
			c-0.5,0.26-0.95,0.61-1.35,1.05l-1.98-2.03c0.69-0.64,1.5-1.13,2.42-1.45c0.92-0.32,1.88-0.48,2.87-0.48
			c1.09,0,1.98,0.14,2.68,0.41c0.7,0.27,1.26,0.67,1.68,1.2c0.42,0.53,0.71,1.17,0.88,1.94c0.16,0.77,0.25,1.65,0.25,2.66v6.11
			h-3.41V60.18z M337.65,56.42c-0.28,0-0.63,0.01-1.05,0.04c-0.42,0.02-0.83,0.1-1.21,0.21c-0.39,0.12-0.72,0.29-0.99,0.52
			c-0.27,0.23-0.41,0.55-0.41,0.96c0,0.45,0.19,0.77,0.57,0.99c0.38,0.21,0.77,0.32,1.19,0.32c0.36,0,0.71-0.05,1.05-0.15
			s0.64-0.24,0.9-0.42c0.26-0.18,0.47-0.41,0.63-0.69c0.16-0.28,0.24-0.61,0.24-0.99v-0.79H337.65z"/>
		<path class="st0" d="M352.65,52.63h-3.27v4.01c0,0.33,0.02,0.63,0.05,0.9c0.03,0.27,0.11,0.51,0.22,0.7
			c0.11,0.2,0.29,0.35,0.53,0.46c0.24,0.11,0.56,0.16,0.95,0.16c0.2,0,0.46-0.02,0.78-0.06c0.32-0.04,0.57-0.14,0.73-0.28v3.09
			c-0.41,0.15-0.84,0.25-1.29,0.3c-0.45,0.05-0.88,0.08-1.31,0.08c-0.63,0-1.2-0.07-1.73-0.2c-0.53-0.13-0.99-0.34-1.38-0.63
			c-0.4-0.29-0.71-0.66-0.93-1.13c-0.22-0.46-0.33-1.02-0.33-1.68v-5.71h-2.38v-2.97h2.38V46.1h3.71v3.56h3.27V52.63z"/>
		<path class="st0" d="M354.66,45.88c0-0.6,0.21-1.1,0.63-1.52c0.42-0.42,0.93-0.63,1.52-0.63c0.6,0,1.1,0.21,1.52,0.63
			c0.42,0.42,0.63,0.93,0.63,1.52c0,0.59-0.21,1.1-0.63,1.52c-0.42,0.42-0.93,0.63-1.52,0.63c-0.59,0-1.1-0.21-1.52-0.63
			C354.87,46.98,354.66,46.47,354.66,45.88z M354.96,49.66h3.71v12.02h-3.71V49.66z"/>
		<path class="st0" d="M360.4,55.68c0-0.96,0.17-1.82,0.52-2.6c0.35-0.77,0.82-1.44,1.42-1.99c0.6-0.55,1.31-0.98,2.13-1.27
			c0.82-0.3,1.69-0.45,2.61-0.45c0.92,0,1.79,0.15,2.61,0.45c0.82,0.3,1.52,0.72,2.13,1.27c0.6,0.55,1.08,1.22,1.42,1.99
			c0.35,0.77,0.52,1.64,0.52,2.6c0,0.96-0.17,1.82-0.52,2.6c-0.35,0.78-0.82,1.44-1.42,1.99c-0.6,0.55-1.31,0.98-2.13,1.27
			c-0.82,0.3-1.69,0.45-2.61,0.45c-0.92,0-1.79-0.15-2.61-0.45c-0.82-0.3-1.53-0.72-2.13-1.27c-0.6-0.55-1.08-1.22-1.42-1.99
			C360.58,57.5,360.4,56.63,360.4,55.68z M364.11,55.68c0,0.91,0.26,1.64,0.78,2.2c0.52,0.56,1.25,0.84,2.19,0.84
			c0.94,0,1.67-0.28,2.19-0.84c0.52-0.56,0.78-1.29,0.78-2.2c0-0.91-0.26-1.64-0.78-2.2c-0.52-0.56-1.25-0.84-2.19-0.84
			c-0.94,0-1.67,0.28-2.19,0.84C364.38,54.03,364.11,54.77,364.11,55.68z"/>
		<path class="st0" d="M375.52,49.66h3.56v1.63h0.05c0.11-0.23,0.28-0.46,0.49-0.69c0.21-0.23,0.47-0.44,0.77-0.62
			c0.3-0.18,0.64-0.33,1.01-0.45c0.38-0.12,0.79-0.17,1.24-0.17c0.94,0,1.7,0.15,2.28,0.43c0.58,0.29,1.03,0.69,1.35,1.2
			c0.32,0.51,0.54,1.11,0.66,1.8c0.12,0.69,0.17,1.44,0.17,2.25v6.63h-3.71V55.8c0-0.35-0.01-0.7-0.04-1.08s-0.1-0.71-0.22-1.03
			s-0.31-0.57-0.57-0.77c-0.26-0.2-0.62-0.3-1.1-0.3c-0.48,0-0.86,0.09-1.16,0.26c-0.3,0.17-0.52,0.41-0.68,0.69
			c-0.16,0.29-0.26,0.61-0.31,0.98c-0.05,0.36-0.07,0.74-0.07,1.14v5.99h-3.71V49.66z"/>
		<path class="st0" d="M129.87,73.86h3.19l7.62,17.52h-4.35l-1.51-3.71h-6.8l-1.46,3.71h-4.25L129.87,73.86z M131.35,78.95
			l-2.13,5.44h4.28L131.35,78.95z"/>
		<path class="st0" d="M153.32,91.37h-3.56v-1.63h-0.05c-0.13,0.23-0.3,0.46-0.51,0.69s-0.46,0.44-0.75,0.62
			c-0.3,0.18-0.64,0.33-1.01,0.45c-0.38,0.12-0.79,0.17-1.24,0.17c-0.94,0-1.7-0.15-2.29-0.43c-0.59-0.29-1.04-0.69-1.36-1.2
			c-0.32-0.51-0.54-1.11-0.64-1.8c-0.11-0.69-0.16-1.44-0.16-2.25v-6.63h3.71v5.89c0,0.35,0.01,0.7,0.04,1.08
			c0.02,0.37,0.1,0.71,0.22,1.03c0.12,0.31,0.31,0.57,0.57,0.77c0.26,0.2,0.62,0.3,1.1,0.3c0.48,0,0.87-0.09,1.16-0.26
			c0.3-0.17,0.52-0.41,0.68-0.69c0.15-0.29,0.26-0.61,0.31-0.98c0.05-0.36,0.07-0.74,0.07-1.14v-5.99h3.71V91.37z"/>
		<path class="st0" d="M164.14,82.32h-3.27v4.01c0,0.33,0.02,0.63,0.05,0.9c0.03,0.27,0.11,0.51,0.22,0.7
			c0.11,0.2,0.29,0.35,0.53,0.46c0.24,0.11,0.56,0.16,0.95,0.16c0.2,0,0.46-0.02,0.78-0.06c0.32-0.04,0.57-0.14,0.73-0.28v3.09
			c-0.41,0.15-0.84,0.25-1.29,0.3c-0.45,0.05-0.88,0.08-1.31,0.08c-0.63,0-1.2-0.07-1.73-0.2c-0.53-0.13-0.99-0.34-1.38-0.63
			c-0.4-0.29-0.71-0.66-0.93-1.13c-0.22-0.46-0.33-1.02-0.33-1.68v-5.71h-2.38v-2.97h2.38v-3.56h3.71v3.56h3.27V82.32z"/>
		<path class="st0" d="M170.23,74.06v6.92h0.05c0.08-0.23,0.22-0.46,0.42-0.69c0.2-0.23,0.44-0.44,0.72-0.62
			c0.28-0.18,0.61-0.33,0.99-0.45c0.38-0.12,0.79-0.17,1.24-0.17c0.94,0,1.7,0.15,2.28,0.43c0.58,0.29,1.03,0.69,1.35,1.2
			c0.32,0.51,0.54,1.11,0.66,1.8c0.12,0.69,0.17,1.44,0.17,2.25v6.63h-3.71v-5.89c0-0.35-0.01-0.7-0.04-1.08
			c-0.02-0.37-0.1-0.71-0.22-1.03c-0.12-0.31-0.31-0.57-0.57-0.77c-0.26-0.2-0.62-0.3-1.1-0.3c-0.48,0-0.86,0.09-1.16,0.26
			c-0.3,0.17-0.52,0.41-0.68,0.69s-0.26,0.61-0.31,0.98c-0.05,0.36-0.07,0.74-0.07,1.14v5.99h-3.71V74.06H170.23z"/>
		<path class="st0" d="M179.8,85.36c0-0.96,0.17-1.82,0.52-2.6c0.35-0.77,0.82-1.44,1.42-1.99c0.6-0.55,1.31-0.98,2.13-1.27
			c0.82-0.3,1.69-0.45,2.61-0.45c0.92,0,1.79,0.15,2.61,0.45c0.82,0.3,1.52,0.72,2.13,1.27c0.6,0.55,1.08,1.22,1.42,1.99
			c0.35,0.77,0.52,1.64,0.52,2.6c0,0.96-0.17,1.82-0.52,2.6c-0.35,0.78-0.82,1.44-1.42,1.99c-0.6,0.55-1.31,0.98-2.13,1.27
			c-0.82,0.3-1.69,0.45-2.61,0.45c-0.92,0-1.79-0.15-2.61-0.45c-0.82-0.3-1.53-0.72-2.13-1.27c-0.6-0.55-1.08-1.22-1.42-1.99
			C179.97,87.19,179.8,86.32,179.8,85.36z M183.51,85.36c0,0.91,0.26,1.64,0.78,2.2c0.52,0.56,1.25,0.84,2.19,0.84
			s1.67-0.28,2.19-0.84c0.52-0.56,0.78-1.29,0.78-2.2c0-0.91-0.26-1.64-0.78-2.2c-0.52-0.56-1.25-0.84-2.19-0.84
			s-1.67,0.28-2.19,0.84C183.77,83.72,183.51,84.46,183.51,85.36z"/>
		<path class="st0" d="M194.91,79.35h3.71v1.93h0.05c0.4-0.74,0.87-1.3,1.41-1.67c0.54-0.37,1.23-0.56,2.05-0.56
			c0.21,0,0.43,0.01,0.64,0.03c0.21,0.02,0.41,0.05,0.59,0.1v3.39c-0.26-0.08-0.52-0.14-0.78-0.18c-0.26-0.04-0.52-0.06-0.8-0.06
			c-0.71,0-1.27,0.1-1.68,0.3c-0.41,0.2-0.73,0.47-0.95,0.83c-0.22,0.36-0.37,0.78-0.43,1.27c-0.07,0.49-0.1,1.04-0.1,1.63v5.02
			h-3.71V79.35z"/>
		<path class="st0" d="M204.75,75.57c0-0.6,0.21-1.1,0.63-1.52c0.42-0.42,0.93-0.63,1.52-0.63c0.6,0,1.1,0.21,1.52,0.63
			c0.42,0.42,0.63,0.93,0.63,1.52c0,0.59-0.21,1.1-0.63,1.52c-0.42,0.42-0.93,0.63-1.52,0.63c-0.59,0-1.1-0.21-1.52-0.63
			C204.96,76.67,204.75,76.16,204.75,75.57z M205.05,79.35h3.71v12.02h-3.71V79.35z"/>
		<path class="st0" d="M219.73,82.32h-3.27v4.01c0,0.33,0.02,0.63,0.05,0.9c0.03,0.27,0.11,0.51,0.22,0.7
			c0.11,0.2,0.29,0.35,0.53,0.46c0.24,0.11,0.56,0.16,0.95,0.16c0.2,0,0.46-0.02,0.78-0.06c0.32-0.04,0.57-0.14,0.73-0.28v3.09
			c-0.41,0.15-0.84,0.25-1.29,0.3c-0.45,0.05-0.88,0.08-1.31,0.08c-0.63,0-1.2-0.07-1.73-0.2c-0.53-0.13-0.99-0.34-1.38-0.63
			c-0.4-0.29-0.71-0.66-0.93-1.13c-0.22-0.46-0.33-1.02-0.33-1.68v-5.71h-2.38v-2.97h2.38v-3.56h3.71v3.56h3.27V82.32z"/>
		<path class="st0" d="M229.06,93.33c-0.25,0.64-0.49,1.21-0.72,1.71c-0.23,0.49-0.52,0.91-0.88,1.25c-0.35,0.34-0.8,0.59-1.35,0.77
			c-0.55,0.17-1.26,0.26-2.15,0.26c-0.96,0-1.88-0.15-2.77-0.45l0.49-3.04c0.56,0.25,1.14,0.37,1.73,0.37
			c0.41,0,0.75-0.05,1.01-0.14c0.26-0.09,0.48-0.22,0.66-0.39c0.17-0.17,0.32-0.38,0.43-0.63c0.12-0.25,0.24-0.54,0.37-0.86
			l0.27-0.69l-5.27-12.12h4.01l3.09,7.94h0.05l2.65-7.94h3.81L229.06,93.33z"/>
		<path class="st0" d="M136.89,55.64c-0.93,1.71-2.55,2.93-4.65,2.93c-3.12,0-5.64-2.53-5.64-5.64s2.53-5.64,5.64-5.64
			c2.12,0,3.77,1.22,4.7,2.96l3.57-1.33c-1.49-3.07-4.63-5.19-8.27-5.19c-5.08,0-9.2,4.12-9.2,9.2s4.12,9.2,9.2,9.2
			c3.62,0,6.73-2.09,8.24-5.13L136.89,55.64z"/>
	</g>
</g>
</svg>
